<svg width="21" height="20" viewBox="0 0 21 20" fill="none" xmlns="http://www.w3.org/2000/svg">
<mask id="mask0_17_143" style="mask-type:luminance" maskUnits="userSpaceOnUse" x="0" y="0" width="21" height="20">
<path d="M20.125 0H0.125V20H20.125V0Z" fill="white"/>
</mask>
<g mask="url(#mask0_17_143)">
<path d="M10.125 12.5C11.5057 12.5 12.625 11.3807 12.625 10C12.625 8.61929 11.5057 7.5 10.125 7.5C8.74429 7.5 7.625 8.61929 7.625 10C7.625 11.3807 8.74429 12.5 10.125 12.5Z" stroke="#909FB4" stroke-width="1.6" stroke-linecap="round" stroke-linejoin="round"/>
<path d="M16.2915 12.5C16.1806 12.7513 16.1475 13.0302 16.1965 13.3005C16.2456 13.5708 16.3744 13.8203 16.5665 14.0167L16.6165 14.0667C16.7715 14.2214 16.8944 14.4053 16.9783 14.6076C17.0622 14.8099 17.1054 15.0268 17.1054 15.2458C17.1054 15.4649 17.0622 15.6817 16.9783 15.8841C16.8944 16.0864 16.7715 16.2702 16.6165 16.425C16.4618 16.58 16.2779 16.7029 16.0756 16.7868C15.8733 16.8706 15.6564 16.9138 15.4374 16.9138C15.2184 16.9138 15.0015 16.8706 14.7991 16.7868C14.5968 16.7029 14.413 16.58 14.2582 16.425L14.2082 16.375C14.0118 16.1829 13.7624 16.054 13.492 16.005C13.2217 15.956 12.9429 15.9891 12.6915 16.1C12.4451 16.2056 12.2349 16.381 12.0868 16.6046C11.9387 16.8282 11.8593 17.0902 11.8582 17.3583V17.5C11.8582 17.942 11.6826 18.3659 11.3701 18.6785C11.0575 18.9911 10.6336 19.1667 10.1915 19.1667C9.74956 19.1667 9.32564 18.9911 9.01307 18.6785C8.70051 18.3659 8.52492 17.942 8.52492 17.5V17.425C8.51847 17.1492 8.42918 16.8817 8.26868 16.6572C8.10817 16.4328 7.88387 16.2619 7.62492 16.1667C7.37357 16.0557 7.09476 16.0226 6.82443 16.0717C6.5541 16.1207 6.30465 16.2495 6.10825 16.4417L6.05825 16.4917C5.90346 16.6466 5.71965 16.7696 5.51732 16.8534C5.31499 16.9373 5.09811 16.9805 4.87909 16.9805C4.66006 16.9805 4.44318 16.9373 4.24085 16.8534C4.03852 16.7696 3.85471 16.6466 3.69992 16.4917C3.54496 16.3369 3.42203 16.1531 3.33815 15.9507C3.25428 15.7484 3.21111 15.5315 3.21111 15.3125C3.21111 15.0935 3.25428 14.8766 3.33815 14.6743C3.42203 14.4719 3.54496 14.2881 3.69992 14.1333L3.74992 14.0833C3.94203 13.8869 4.07091 13.6375 4.11992 13.3672C4.16894 13.0968 4.13585 12.818 4.02492 12.5667C3.91928 12.3202 3.74388 12.11 3.52031 11.9619C3.29673 11.8139 3.03474 11.7344 2.76659 11.7333H2.62492C2.18289 11.7333 1.75897 11.5577 1.44641 11.2452C1.13385 10.9326 0.958252 10.5087 0.958252 10.0667C0.958252 9.62463 1.13385 9.20071 1.44641 8.88815C1.75897 8.57559 2.18289 8.39999 2.62492 8.39999H2.69992C2.97575 8.39354 3.24326 8.30426 3.46767 8.14375C3.69208 7.98325 3.86302 7.75894 3.95825 7.49999C4.06918 7.24865 4.10227 6.96983 4.05326 6.6995C4.00424 6.42917 3.87537 6.17973 3.68325 5.98333L3.63325 5.93333C3.47829 5.77854 3.35536 5.59473 3.27149 5.39239C3.18761 5.19006 3.14444 4.97319 3.14444 4.75416C3.14444 4.53514 3.18761 4.31826 3.27149 4.11593C3.35536 3.9136 3.47829 3.72978 3.63325 3.57499C3.78804 3.42003 3.97186 3.2971 4.17419 3.21323C4.37652 3.12935 4.59339 3.08618 4.81242 3.08618C5.03145 3.08618 5.24832 3.12935 5.45065 3.21323C5.65298 3.2971 5.8368 3.42003 5.99159 3.57499L6.04159 3.62499C6.23799 3.81711 6.48743 3.94598 6.75776 3.995C7.02809 4.04401 7.30691 4.01092 7.55825 3.89999H7.62492C7.87139 3.79436 8.0816 3.61896 8.22966 3.39538C8.37773 3.17181 8.45718 2.90982 8.45825 2.64166V2.49999C8.45825 2.05797 8.63385 1.63404 8.94641 1.32148C9.25897 1.00892 9.68289 0.833328 10.1249 0.833328C10.5669 0.833328 10.9908 1.00892 11.3034 1.32148C11.616 1.63404 11.7915 2.05797 11.7915 2.49999V2.57499C11.7926 2.84315 11.8721 3.10514 12.0201 3.32872C12.1682 3.55229 12.3784 3.72769 12.6249 3.83333C12.8762 3.94426 13.155 3.97735 13.4254 3.92833C13.6957 3.87932 13.9451 3.75044 14.1415 3.55833L14.1915 3.50833C14.3463 3.35337 14.5301 3.23044 14.7325 3.14656C14.9348 3.06269 15.1517 3.01952 15.3707 3.01952C15.5897 3.01952 15.8066 3.06269 16.0089 3.14656C16.2113 3.23044 16.3951 3.35337 16.5499 3.50833C16.7048 3.66312 16.8278 3.84693 16.9116 4.04926C16.9955 4.25159 17.0387 4.46847 17.0387 4.68749C17.0387 4.90652 16.9955 5.1234 16.9116 5.32573C16.8278 5.52806 16.7048 5.71187 16.5499 5.86666L16.4999 5.91666C16.3078 6.11306 16.1789 6.36251 16.1299 6.63284C16.0809 6.90317 16.1139 7.18198 16.2249 7.43333V7.49999C16.3305 7.74647 16.5059 7.95668 16.7295 8.10474C16.9531 8.2528 17.2151 8.33226 17.4832 8.33333H17.6249C18.0669 8.33333 18.4908 8.50892 18.8034 8.82148C19.1159 9.13404 19.2915 9.55797 19.2915 9.99999C19.2915 10.442 19.1159 10.8659 18.8034 11.1785C18.4908 11.4911 18.0669 11.6667 17.6249 11.6667H17.5499C17.2817 11.6677 17.0197 11.7472 16.7962 11.8952C16.5726 12.0433 16.3972 12.2535 16.2915 12.5Z" stroke="#909FB4" stroke-width="1.6" stroke-linecap="round" stroke-linejoin="round"/>
</g>
</svg>
